:SAMPLES-PER-SECOND 30
:FULLY-SPECIFIED
:DEGREES
489
root  46.6137 38.5958 7.11907 -178.969 -56.91 173.418
RightUpLeg  -16.4925 -7.44587 -1.64249
RightLeg  4.90281 -8.37598 1.53979
RightFoot  -7.63207 -0.253125 6.19491
RightToes  2.21189e-009 0 -3.6325e-017
Spine  7.5793 -2.59307 -2.81355
Spine1  11.0649 -3.58015 2.04273
HEad  -0.714355 -0.251083 -2.63228
LeftShoulder1  0.0646906 3.33668 -32.6479
LeftArm  -7.02306 1.24327 -37.8504
LeftForeArm  19.0979 -9.69465 -6.89875
LeftHand  -0.048815 4.10112 2.65322
RightShoulder  -0.773176 -5.71098 28.3959
RightArm  11.3843 -7.37348 42.4835
RightForeArm  1.9189 40.5658 9.46808
RightHand  -0.831211 4.2749 -10.2277
LeftUpLeg  10.8609 5.04472 -7.69947
LeftLeg  9.76378 -5.59543 -1.5622
LeftFoot  -12.8892 0.212899 9.98222
LeftToes  -3.01956e-010 3.07132e-011 1.04116e-011
490
root  45.5276 38.4434 6.71584 -178.585 -58.8072 172.677
RightUpLeg  -15.9862 -5.77999 -1.91005
RightLeg  -0.3679 -8.87145 2.22441
RightFoot  -6.05559 -0.340037 6.48876
RightToes  2.21189e-009 0 -3.6325e-017
Spine  7.26004 -2.52486 -2.46093
Spine1  11.3408 -3.49847 2.13574
HEad  -0.500717 -2.33774 -2.72015
LeftShoulder1  0.0505797 3.37445 -33.0089
LeftArm  -7.13477 2.10704 -37.6593
LeftForeArm  18.1677 -9.94303 -6.80077
LeftHand  -0.0388973 4.82686 3.17727
RightShoulder  -0.758479 -5.68375 28.1537
RightArm  11.0732 -7.40006 41.7591
RightForeArm  1.23346 39.4128 9.13301
RightHand  -0.889425 4.65472 -10.5412
LeftUpLeg  13.2865 5.10747 -7.97339
LeftLeg  9.49051 -6.86382 -1.53777
LeftFoot  -13.7353 0.288815 9.84967
LeftToes  -3.01956e-010 3.07132e-011 1.04116e-011
491
root  44.3536 38.2192 6.26977 -178.138 -60.0885 171.744
RightUpLeg  -16.2984 -5.22588 -1.8028
RightLeg  -1.14278 -5.04232 1.47182
RightFoot  -5.44545 -0.358586 6.14501
RightToes  2.21189e-009 0 -3.6325e-017
Spine  7.14803 -2.34882 -1.87055
Spine1  11.1176 -3.11902 1.55124
HEad  0.185867 -3.95508 -2.5955
LeftShoulder1  0.0523708 3.36679 -32.7237
LeftArm  -7.3512 3.41461 -38.0462
LeftForeArm  18.137 -9.75021 -6.73624
LeftHand  -0.0423497 4.63946 3.32477
RightShoulder  -0.777939 -5.72121 28.4534
RightArm  11.5218 -7.41066 40.7815
RightForeArm  0.223489 37.08 8.46951
RightHand  -0.878841 4.81048 -10.2656
LeftUpLeg  15.4617 5.329 -8.22575
LeftLeg  10.3221 -8.30876 -1.72087
LeftFoot  -14.8008 0.37815 9.53646
LeftToes  -3.01956e-010 3.07132e-011 1.04116e-011
492
root  43.0964 37.9979 5.79807 -177.828 -61.3389 171.233
RightUpLeg  -16.9685 -5.20638 -1.80674
RightLeg  1.31213 -1.05799 1.18157
RightFoot  -3.84432 -0.372872 5.48283
RightToes  2.21189e-009 0 -3.6325e-017
Spine  6.28272 -2.4456 -1.39936
Spine1  11.8176 -3.24285 1.5914
HEad  0.105301 -5.05444 -3.00114
LeftShoulder1  -0.128292 3.82733 -33.6544
LeftArm  -6.21963 4.47279 -37.5164
LeftForeArm  17.8379 -10.1793 -7.00573
LeftHand  -0.0616887 3.67364 2.9904
RightShoulder  -0.751377 -5.65088 28.3492
RightArm  12.3443 -6.91061 40.7456
RightForeArm  -1.41318 33.4207 7.51146
RightHand  -0.932148 4.68522 -10.9957
LeftUpLeg  17.3875 5.62383 -8.08291
LeftLeg  11.4752 -9.72199 -2.08693
LeftFoot  -15.6193 0.439539 9.23309
LeftToes  -3.01956e-010 3.07132e-011 1.04116e-011
493
root  41.7858 37.8879 5.29281 -179.152 -62.9752 172.756
RightUpLeg  -17.7205 -5.3242 -0.960631
RightLeg  5.46069 0.65819 1.31244
RightFoot  1.12601 -0.07643 0.931411
RightToes  2.21189e-009 0 -3.6325e-017
Spine  5.36005 -2.66025 -0.146818
Spine1  12.402 -3.71164 2.50169
HEad  0.317993 -6.08144 -3.85634
LeftShoulder1  -0.119549 3.8033 -33.7781
LeftArm  -4.92132 7.02584 -38.0534
LeftForeArm  17.4412 -11.2855 -7.10175
LeftHand  -0.0467479 4.48483 3.1288
RightShoulder  -0.731741 -5.61306 28.0435
RightArm  13.4108 -6.88648 40.8276
RightForeArm  -2.73622 29.079 6.44639
RightHand  -0.831472 4.90022 -9.65296
LeftUpLeg  19.2189 5.49137 -6.82379
LeftLeg  12.6592 -11.4562 -2.41506
LeftFoot  -15.8627 0.417761 8.14632
LeftToes  -3.01956e-010 3.07132e-011 1.04116e-011
494
root  40.4422 37.8086 4.77394 178.084 -64.4882 175.997
RightUpLeg  -18.7639 -5.85399 0.334839
RightLeg  10.5414 0.18729 1.06507
RightFoot  5.95829 0.363764 -2.22196
RightToes  2.21189e-009 0 -3.6325e-017
Spine  4.842 -2.82044 2.16556
Spine1  12.1572 -4.02952 3.31241
HEad  0.977722 -7.04843 -4.78394
LeftShoulder1  -0.161509 3.90435 -34.1754
LeftArm  -4.32941 9.48313 -38.6167
LeftForeArm  18.4731 -11.6941 -7.08104
LeftHand  -0.0352607 4.7439 2.29568
RightShoulder  -0.802813 -5.79865 28.35
RightArm  15.2025 -6.87959 40.4932
RightForeArm  -5.42337 23.8985 5.45011
RightHand  -0.845967 4.78643 -9.91603
LeftUpLeg  20.3699 4.79012 -4.73893
LeftLeg  14.9606 -13.1306 -3.37651
LeftFoot  -15.6768 0.334834 6.39111
LeftToes  -3.01956e-010 3.07132e-011 1.04116e-011
495
root  39.0483 37.6833 4.26223 174.504 -64.5651 179.922
RightUpLeg  -19.4846 -6.48479 2.13512
RightLeg  16.3168 1.22385 0.558052
RightFoot  5.00146 0.364299 -2.30961
RightToes  2.21189e-009 0 -3.6325e-017
Spine  4.69549 -2.63571 5.749
Spine1  11.6506 -3.3866 2.54429
HEad  1.35793 -7.78836 -5.49998
LeftShoulder1  -0.213027 4.02856 -34.4552
LeftArm  -3.7565 11.8557 -39.2736
LeftForeArm  20.1263 -12.3495 -6.94926
LeftHand  -0.0358265 3.79328 1.17655
RightShoulder  -0.897743 -6.00748 29.2801
RightArm  15.4657 -6.68284 39.744
RightForeArm  -6.16431 18.3154 5.23421
RightHand  -0.755262 4.31483 -9.29682
LeftUpLeg  20.3854 4.43377 -2.60095
LeftLeg  19.7765 -14.0712 -5.24578
LeftFoot  -14.6032 0.207173 4.26243
LeftToes  -3.01956e-010 3.07132e-011 1.04116e-011
496
root  37.7469 37.6389 3.77158 171.625 -64.5181 -176.894
RightUpLeg  -19.4147 -5.98073 3.37659
RightLeg  20.4438 0.943478 0.164641
RightFoot  3.33379 0.534636 -3.97539
RightToes  2.21189e-009 0 -3.6325e-017
Spine  4.71351 -2.45841 8.49177
Spine1  11.4614 -2.88396 2.50683
HEad  1.30026 -8.72778 -6.51526
LeftShoulder1  -0.242005 4.09904 -34.5065
LeftArm  -3.70183 14.0959 -40.2929
LeftForeArm  21.6965 -12.9635 -6.68003
LeftHand  -0.0186333 3.45485 -0.0177903
RightShoulder  -0.914629 -6.02748 29.6588
RightArm  11.5564 -6.52341 40.0619
RightForeArm  -2.64536 12.0647 5.77791
RightHand  -0.619889 2.78731 -9.00511
LeftUpLeg  18.7224 5.83982 0.206007
LeftLeg  27.0449 -16.1072 -8.48488
LeftFoot  -10.5711 0.0732106 0.911182
LeftToes  -3.01956e-010 3.07132e-011 1.04116e-011
497
root  36.6362 37.6613 3.26803 169.681 -66.5259 -173.959
RightUpLeg  -19.3532 -6.59756 3.99223
RightLeg  23.0358 -0.442378 -0.426662
RightFoot  0.695977 0.495129 -4.63566
RightToes  2.21189e-009 0 -3.6325e-017
Spine  4.51326 -2.75895 9.44483
Spine1  10.8321 -3.33589 4.17569
HEad  1.44893 -9.79947 -6.78238
LeftShoulder1  -0.249739 4.11749 -34.5439
LeftArm  -2.4754 15.3338 -40.8995
LeftForeArm  22.1491 -13.308 -6.8404
LeftHand  -0.0200759 3.84765 -0.113195
RightShoulder  -0.953665 -6.11905 29.8952
RightArm  9.21381 -6.89498 40.3616
RightForeArm  -1.49426 7.64243 5.65939
RightHand  -0.494763 1.44685 -8.55002
LeftUpLeg  13.6328 5.7566 2.81106
LeftLeg  37.1661 -16.6543 -12.7715
LeftFoot  -2.91765 0.346224 -4.33055
LeftToes  -3.01956e-010 3.07132e-011 1.04116e-011
498
root  35.6362 37.7092 2.84355 166.694 -68.7309 -170.289
RightUpLeg  -18.4535 -8.50896 4.62731
RightLeg  24.3214 -0.97732 -0.657176
RightFoot  -1.78987 0.367004 -4.51542
RightToes  2.21189e-009 0 -3.6325e-017
Spine  4.834 -3.05177 11.0652
Spine1  10.3151 -3.40491 4.83953
HEad  1.16991 -11.5079 -6.30341
LeftShoulder1  -0.223653 4.05728 -34.2596
LeftArm  -1.19632 15.2004 -41.3803
LeftForeArm  23.8695 -13.6249 -6.96652
LeftHand  -0.00536604 3.7147 -1.01397
RightShoulder  -0.981424 -6.18035 30.1032
RightArm  7.95757 -8.02525 41.1446
RightForeArm  -2.71927 5.64788 5.18668
RightHand  -0.461603 1.29323 -8.16082
LeftUpLeg  7.29854 4.49011 4.51411
LeftLeg  47.0184 -13.5554 -14.6584
LeftFoot  7.21274 1.54255 -9.50002
LeftToes  -3.01956e-010 3.07132e-011 1.04116e-011
